<?xml version="1.0"?>
<svg xmlns="http://www.w3.org/2000/svg" xmlns:xlink="http://www.w3.org/1999/xlink" version="1.1" id="Capa_1" x="0px" y="0px" viewBox="0 0 198.496 198.496" style="enable-background:new 0 0 198.496 198.496;" xml:space="preserve" width="100%" height="100%">
<g>
    <path style="fill:#F7941E;" d="M99.248,161.458v37.03799999999998h-71.427c0,-14.99199999999999,37.623000000000005,-37.03799999999998,71.427,-37.03799999999998Z"/>
    <path style="fill:#F7941E;" d="M99.248,161.458v37.038h71.427C170.675,183.504,133.052,161.458,99.248,161.458z"/>
    <path style="fill: rgb(243, 108, 33);" d="M99.248,161.458c-7.189999999999998,0,-14.552000000000007,1.0049999999999955,-21.689000000000007,2.719999999999999c0.04800000000000182,0.06299999999998818,7.915999999999997,10.213999999999999,21.688999999999993,10.213999999999999c12.754000000000005,0,21.233000000000004,-8.693000000000012,22.462000000000003,-10.030000000000001c-7.378,-1.8309999999999889,-15.012,-2.9039999999999964,-22.46199999999999,-2.9039999999999964Z"/>
    <path style="fill: rgb(253, 204, 155);" d="M84.55,162.74c0,0,4.299000000000007,5.331999999999994,14.697000000000003,5.331999999999994c10.397999999999996,0,14.697999999999993,-5.331999999999994,14.697999999999993,-5.331999999999994s-15.24799999999999,-5.551000000000016,-29.394999999999996,0Z"/>
    &#xA0;</g>
</svg>
