<?xml version="1.0"?>
<svg xmlns="http://www.w3.org/2000/svg" xmlns:xlink="http://www.w3.org/1999/xlink" version="1.1" id="Capa_1" x="0px" y="0px" viewBox="0 0 207.964 207.964" style="enable-background:new 0 0 207.964 207.964;" xml:space="preserve" width="100%" height="100%">
<g>
    <path style="fill:#694B74;" d="M100.012,170.927v37.038H35.639C35.639,192.973,66.208,170.927,100.012,170.927z"/>
    <path style="fill:#694B74;" d="M100.012,170.927v37.038h64.372C164.384,192.973,133.816,170.927,100.012,170.927z"/>
    <path style="fill:#563C60;" d="M99.821,170.927c-7.271,0-14.715,1.005-21.933,2.72c0.049,0.063,8.006,10.214,21.933,10.214   c12.898,0,21.472-8.693,22.715-10.03C115.076,172,107.355,170.927,99.821,170.927z"/>
    <path style="fill:#FDCC9B;" d="M85.315,172.209c0,0,4.299,5.332,14.697,5.332c10.398,0,14.697-5.332,14.697-5.332   S99.461,166.657,85.315,172.209z"/>
</g>
</svg>
