<?xml version="1.0"?>
<svg xmlns="http://www.w3.org/2000/svg" xmlns:xlink="http://www.w3.org/1999/xlink" version="1.1" id="Capa_1" x="0px" y="0px" viewBox="0 0 196.651 196.651" style="enable-background:new 0 0 196.651 196.651;" xml:space="preserve" width="100%" height="100%">
<g>
    <path style="fill:#D58E64;" d="M98.326,159.613v37.038H26.898C26.898,181.66,64.521,159.613,98.326,159.613z"/>
    <path style="fill:#D58E64;" d="M98.326,159.613v37.038h71.427C169.753,181.66,132.129,159.613,98.326,159.613z"/>
    <path style="fill:#BF805A;" d="M98.326,159.613c-7.19,0-14.552,1.005-21.689,2.721c0.048,0.063,7.917,10.213,21.689,10.213   c12.754,0,21.233-8.692,22.462-10.03C113.41,160.686,105.775,159.613,98.326,159.613z"/>
    <path style="fill:#FDCC9B;" d="M83.628,160.895c0,0,4.299000000000007,5.331999999999994,14.697000000000003,5.331999999999994c10.397999999999996,0,14.697999999999993,-5.331999999999994,14.697999999999993,-5.331999999999994s-15.248999999999995,-5.551000000000016,-29.394999999999996,0Z"/>
    <path style="fill:#744A25;" d="M67.014,165.109c-22.206,7.502-40.115,21.199-40.115,31.542h40.117v-31.542H67.014z"/>
    <path style="fill:#573514;" d="M69.151,196.651v-33.805c0,0-5.732,2.205-7.716,3.233l-5.85,30.571H69.151z"/>
    <path style="fill:#744A25;" d="M129.638,165.109c22.206,7.502,40.115,21.199,40.115,31.542h-40.117v-31.542H129.638z"/>
    <path style="fill:#573514;" d="M127.5,196.651v-33.805c0,0,5.732,2.205,7.716,3.233l5.85,30.571H127.5z"/>
</g>
</svg>
