<?xml version="1.0"?>
<svg xmlns="http://www.w3.org/2000/svg" xmlns:xlink="http://www.w3.org/1999/xlink" version="1.1" id="Capa_1" x="0px" y="0px" viewBox="0 0 196.651 196.651" style="enable-background:new 0 0 196.651 196.651;" xml:space="preserve" width="100%" height="100%">
<g>
    <g>
        <g>
            <g>
                <circle style="fill:#FFFFFF;" cx="124.173" cy="88.433" r="1.846"/>
            </g>
        </g>
    </g>
    <path style="fill:#86461B;" d="M98.712,48.207V0C48.354,0,38.948,18.813,36.596,54.086c-2.352,35.274,2.958,47.417,6.476,47.372   c3.518-0.046,1.627-40.44,6.458-49.136C58.349,36.449,74.113,48.207,98.712,48.207z"/>
    <path style="fill:#86461B;" d="M98.712,48.207V0c50.358,0,59.764,18.813,62.116,54.086c2.352,35.274-2.958,47.417-6.476,47.372   c-3.518-0.046-1.627-40.44-6.458-49.136C139.076,36.449,123.311,48.207,98.712,48.207z"/>
</g>
</svg>
