<?xml version="1.0"?>
<svg xmlns="http://www.w3.org/2000/svg" xmlns:xlink="http://www.w3.org/1999/xlink" version="1.1" id="Capa_1" x="0px" y="0px" viewBox="0 0 198.496 198.496" style="enable-background:new 0 0 198.496 198.496;" xml:space="preserve" width="100%" height="100%">
<g>
    <g>
        <rect x="84.55" y="148.231" style="fill:#FDCC9B;" width="29.395" height="32.922"/>
        <path style="fill:#FCBC85;" d="M84.551,152.108c0,0,12.365,7.874,29.395,6.05v-9.928H84.551V152.108z"/>
        <ellipse style="fill:#FCBC85;" cx="42.164" cy="97.181" rx="14.343" ry="16.364"/>
        <ellipse style="fill:#FCBC85;" cx="156.332" cy="97.181" rx="14.343" ry="16.364"/>
        <path style="fill:#FDCC9B;" d="M156.274,65.925c0,-24.103,-17.637,-41.741,-57.02600000000001,-41.741c-39.389,0,-57.026,17.637,-57.026,41.741c0,24.104,-4.115000000000002,87.597,57.026,87.597c61.14100000000002,0,57.02600000000001,-63.492999999999995,57.02600000000001,-87.597Z"/>
    </g>
    <path style="fill:#FDCC9B;" d="M84.55,162.74c0,0,4.299,5.332,14.697,5.332c10.398,0,14.698-5.332,14.698-5.332   S98.697,157.189,84.55,162.74z"/>
</g>
</svg>
